<?xml version="1.0" standalone="no"?>
<!DOCTYPE svg PUBLIC "-//W3C//DTD SVG 20010904//EN"
 "http://www.w3.org/TR/2001/REC-SVG-20010904/DTD/svg10.dtd">
<svg version="1.0" xmlns="http://www.w3.org/2000/svg"
 width="77.000000pt" height="77.000000pt" viewBox="0 0 77.000000 77.000000"
 preserveAspectRatio="xMidYMid meet">
<metadata>
Created by potrace 1.11, written by Peter Selinger 2001-2013
</metadata>
<g transform="translate(0.000000,77.000000) scale(0.100000,-0.100000)"
fill="#000000" stroke="none">
<path d="M223 734 c-6 -16 2 -129 13 -182 5 -27 3 -36 -15 -48 -11 -8 -28 -30
-37 -47 -9 -18 -29 -48 -45 -68 -16 -20 -31 -54 -35 -77 -6 -38 -5 -41 20 -48
14 -3 36 -7 50 -8 22 -1 21 -4 -22 -51 -51 -57 -86 -129 -78 -161 4 -16 16
-24 45 -29 62 -10 159 13 146 36 -4 6 -13 5 -25 -1 -27 -15 -117 -13 -123 3
-10 30 33 94 95 138 l27 20 25 -50 c27 -52 58 -81 88 -81 17 0 146 92 160 114
26 40 25 40 52 10 28 -32 48 -87 39 -110 -6 -16 -59 -44 -84 -44 -24 0 -49
-10 -49 -21 0 -5 10 -9 23 -9 75 0 162 57 154 102 -8 49 -60 159 -91 195 -19
22 -19 23 0 30 10 3 25 15 32 25 7 10 17 16 21 14 4 -3 18 9 32 26 13 16 30
36 37 43 18 19 15 43 -7 62 -20 16 -19 17 10 54 49 63 31 66 -51 11 -63 -43
-71 -63 -35 -82 33 -18 32 -26 -12 -66 -46 -42 -54 -43 -41 -1 20 63 30 133
32 212 l1 80 -30 3 c-23 2 -37 -4 -59 -27 -34 -36 -28 -50 11 -30 16 7 32 15
37 18 12 5 0 -79 -25 -175 -23 -89 -47 -150 -55 -141 -3 3 -1 14 4 24 12 21
-36 175 -62 202 -24 23 -48 4 -64 -50 -25 -80 -22 -76 -31 -59 -13 23 -53 198
-49 210 2 6 17 0 37 -14 41 -30 52 -26 44 17 -7 41 -23 59 -23 27 l0 -23 -23
21 c-27 26 -55 28 -64 6z m29 -266 c-16 -16 -15 -28 1 -28 6 0 22 -25 34 -55
20 -52 20 -55 3 -55 -10 0 -22 5 -25 10 -10 15 -46 12 -67 -7 -24 -22 -35 -10
-16 19 8 13 18 37 22 53 9 38 33 75 48 75 9 0 9 -3 0 -12z m95 -235 c-2 -25 1
-28 28 -28 23 0 33 7 43 28 8 16 21 27 33 27 30 0 23 -11 -37 -59 l-55 -44
-34 33 c-47 46 -45 67 7 69 12 1 16 -6 15 -26z"/>
</g>
</svg>
